<svg version="1.0" xmlns="http://www.w3.org/2000/svg"
     width="320.000000pt" height="320.000000pt" viewBox="0 0 320.000000 320.000000"
     preserveAspectRatio="xMidYMid meet">

    <g transform="translate(0.000000,320.000000) scale(0.100000,-0.100000)"
       fill="#000000" stroke="none">
        <path d="M0 1600 l0 -1600 1600 0 1600 0 0 1600 0 1600 -1600 0 -1600 0 0
-1600z m730 931 c18 -35 11 -50 -58 -123 -168 -180 -231 -284 -288 -477 -21
-70 -27 -114 -31 -240 -13 -354 73 -591 306 -844 87 -94 97 -121 61 -157 -42
-42 -98 -14 -203 99 -151 164 -253 372 -291 594 -49 284 -19 552 84 758 70
141 194 302 285 371 58 44 117 52 135 19z m1866 -12 c49 -33 154 -151 215
-241 137 -200 200 -439 184 -698 -20 -344 -115 -578 -326 -803 -94 -102 -149
-127 -189 -87 -35 35 -25 65 43 138 146 157 221 276 271 431 48 148 60 243 53
429 -4 130 -9 172 -31 245 -54 181 -119 292 -265 450 -90 98 -106 128 -79 155
22 22 77 14 124 -19z m-960 -191 c118 -122 180 -231 210 -367 18 -80 15 -184
-10 -296 -15 -71 -12 -85 18 -85 30 0 69 36 95 88 11 22 25 43 30 47 24 14
121 -163 146 -266 29 -126 16 -227 -47 -357 -40 -82 -142 -205 -210 -253 l-30
-22 35 49 c19 27 45 69 57 94 28 54 37 154 18 190 -13 23 -18 24 -98 25 -67 0
-92 4 -120 20 -73 43 -84 96 -66 325 9 107 0 179 -28 245 l-13 30 -33 -65
c-18 -36 -72 -126 -120 -200 -151 -232 -204 -362 -205 -500 0 -77 12 -121 49
-175 l21 -30 -42 33 c-144 113 -233 281 -233 437 0 128 43 233 174 430 175
263 275 505 276 668 l0 48 28 -19 c15 -11 59 -53 98 -94z"/>
    </g>
</svg>
