<?xml version="1.0" standalone="no"?>
<!DOCTYPE svg PUBLIC "-//W3C//DTD SVG 20010904//EN"
 "http://www.w3.org/TR/2001/REC-SVG-20010904/DTD/svg10.dtd">
<svg version="1.0" xmlns="http://www.w3.org/2000/svg"
 width="514.000000pt" height="403.000000pt" viewBox="0 0 514.000000 403.000000"
 preserveAspectRatio="xMidYMid meet">

<g transform="translate(0.000000,403.000000) scale(0.100000,-0.100000)"
fill="#000000" stroke="none">
<path d="M1294 3995 c-63 -96 12 -503 99 -540 92 -39 429 126 527 258 27 36
31 48 27 86 -6 52 -22 70 -68 77 -49 8 -109 -10 -166 -51 -64 -46 -155 -103
-171 -107 -12 -3 -51 88 -52 122 0 30 -58 137 -85 158 -39 31 -90 29 -111 -3z"/>
<path d="M4983 3798 c-6 -7 -18 -52 -27 -99 -66 -351 -235 -725 -538 -1184
-103 -156 -212 -267 -280 -285 -64 -17 -289 -124 -376 -180 -126 -80 -200
-139 -321 -255 -197 -191 -364 -406 -486 -627 -20 -38 -39 -68 -41 -68 -2 0
-25 13 -52 30 -74 46 -160 64 -267 56 -152 -10 -361 -51 -425 -82 -48 -25 -53
-13 -100 241 -40 213 -63 293 -113 394 -75 151 -209 312 -392 470 -168 146
-293 228 -575 381 -234 126 -361 227 -478 382 -86 113 -196 328 -248 488 -21
63 -40 117 -42 120 -13 17 -55 -66 -91 -177 -115 -359 -151 -711 -121 -1203
32 -529 177 -1021 400 -1360 182 -276 278 -366 530 -495 83 -42 144 -64 261
-94 298 -77 502 -105 695 -96 l140 7 49 -31 c57 -36 257 -104 358 -121 37 -7
114 -10 170 -8 119 5 164 23 238 95 l47 45 45 -26 c96 -57 211 -87 376 -99
331 -23 591 34 841 186 211 127 328 240 452 433 86 134 239 486 332 764 141
426 228 1284 181 1805 -15 179 -45 369 -65 418 -4 12 -18 56 -31 97 -25 85
-32 96 -46 78z m50 -263 c27 -141 40 -362 41 -680 1 -283 -2 -329 -27 -530
-52 -409 -98 -632 -183 -890 -94 -284 -290 -652 -446 -839 -120 -144 -267
-261 -423 -336 -312 -151 -695 -199 -955 -120 -66 20 -186 87 -195 108 -7 18
13 318 23 357 7 24 14 31 38 32 348 29 693 146 859 292 92 80 138 185 114 258
-9 28 -15 33 -42 33 -72 0 -245 -68 -342 -133 -65 -44 -225 -180 -238 -203
-16 -28 9 -12 108 67 151 121 282 189 419 219 64 14 73 5 56 -55 -52 -184
-398 -353 -848 -415 -46 -6 -90 -14 -98 -17 -10 -4 -14 3 -14 28 1 62 38 281
49 292 6 6 11 18 11 26 0 41 143 258 275 416 279 334 510 524 820 676 185 90
280 116 520 147 89 11 74 27 -29 30 -80 3 -127 -3 -216 -25 -21 -5 -15 4 35
58 102 110 348 496 470 738 96 192 164 387 181 520 8 66 17 53 37 -54z m-4805
-193 c44 -143 140 -333 221 -437 103 -131 253 -252 426 -345 44 -23 114 -61
155 -83 278 -149 438 -264 632 -458 228 -229 292 -350 368 -704 17 -82 43
-174 56 -203 13 -29 24 -56 24 -61 0 -4 -13 -37 -29 -72 -16 -35 -43 -109 -60
-165 l-31 -100 -43 3 c-160 12 -359 130 -485 288 -83 102 -112 163 -112 228 0
43 4 57 14 57 8 0 57 -35 108 -77 154 -128 258 -198 258 -173 0 38 -301 296
-359 306 -50 10 -71 -19 -71 -100 0 -115 32 -177 167 -322 61 -67 105 -103
176 -147 113 -68 238 -110 300 -100 l40 6 -6 -30 c-30 -149 -32 -306 -6 -382
16 -44 4 -51 -90 -51 -107 0 -400 47 -596 96 -123 31 -302 97 -367 135 -309
182 -534 514 -728 1075 -73 212 -103 403 -120 786 -12 256 -1 519 30 698 23
134 89 410 98 410 4 0 18 -35 30 -78z m2572 -2277 c36 -16 67 -30 69 -31 3 -2
-37 -243 -59 -354 -26 -132 -43 -435 -27 -497 8 -31 7 -33 -45 -60 -50 -26
-59 -28 -178 -26 -140 1 -234 18 -372 66 l-93 32 -20 50 c-30 76 -28 311 4
455 27 124 63 237 94 300 24 50 3 42 237 85 44 8 127 13 200 12 114 -2 131 -5
190 -32z"/>
</g>
</svg>
