<?xml version="1.0" standalone="no"?>
<!DOCTYPE svg PUBLIC "-//W3C//DTD SVG 20010904//EN"
 "http://www.w3.org/TR/2001/REC-SVG-20010904/DTD/svg10.dtd">
<svg version="1.0" xmlns="http://www.w3.org/2000/svg"
 width="512.000000pt" height="512.000000pt" viewBox="0 0 512.000000 512.000000"
 preserveAspectRatio="xMidYMid meet">

<g transform="translate(0.000000,512.000000) scale(0.100000,-0.100000)"
fill="#000000" stroke="none">
<path d="M481 3155 c-326 -74 -535 -396 -466 -719 74 -349 436 -563 775 -457
186 58 344 217 403 406 31 98 31 252 0 350 -60 189 -217 348 -403 406 -85 27
-225 33 -309 14z"/>
<path d="M2431 3155 c-291 -66 -497 -338 -478 -630 18 -256 187 -470 432 -548
54 -17 95 -22 175 -22 171 0 311 57 429 176 119 118 176 258 176 429 0 80 -5
121 -22 175 -61 192 -215 347 -403 406 -85 27 -225 33 -309 14z"/>
<path d="M4380 3154 c-175 -37 -333 -163 -416 -329 -190 -385 77 -842 511
-872 295 -20 568 190 630 483 91 428 -296 811 -725 718z"/>
</g>
</svg>
